{
    "asset" : {
        "generator" : "Khronos glTF Blender I/O v1.8.19",
        "version" : "2.0"
    },
    "scene" : 0,
    "scenes" : [
        {
            "name" : "Scene",
            "nodes" : [
                0,
                1,
                2,
                3,
                4
            ]
        }
    ],
    "nodes" : [
        {
            "mesh" : 0,
            "name" : "Line",
            "translation" : [
                0,
                0,
                1
            ]
        },
        {
            "mesh" : 1,
            "name" : "L",
            "translation" : [
                0,
                0,
                13
            ]
        },
        {
            "mesh" : 2,
            "name" : "S",
            "translation" : [
                0,
                0,
                5
            ]
        },
        {
            "mesh" : 3,
            "name" : "Wither",
            "translation" : [
                0,
                2,
                21
            ]
        },
        {
            "mesh" : 4,
            "name" : "Square",
            "translation" : [
                0,
                0,
                27
            ]
        }
    ],
    "materials" : [
        {
            "doubleSided" : true,
            "name" : "Material",
            "pbrMetallicRoughness" : {
                "baseColorFactor" : [
                    0.800000011920929,
                    0.800000011920929,
                    0.800000011920929,
                    1
                ],
                "metallicFactor" : 0,
                "roughnessFactor" : 0.4000000059604645
            }
        }
    ],
    "meshes" : [
        {
            "name" : "Cube",
            "primitives" : [
                {
                    "attributes" : {
                        "POSITION" : 0,
                        "NORMAL" : 1,
                        "TEXCOORD_0" : 2
                    },
                    "indices" : 3,
                    "material" : 0
                }
            ]
        },
        {
            "name" : "Cube.001",
            "primitives" : [
                {
                    "attributes" : {
                        "POSITION" : 4,
                        "NORMAL" : 5,
                        "TEXCOORD_0" : 6
                    },
                    "indices" : 7
                }
            ]
        },
        {
            "name" : "Cube.002",
            "primitives" : [
                {
                    "attributes" : {
                        "POSITION" : 8,
                        "NORMAL" : 9,
                        "TEXCOORD_0" : 10
                    },
                    "indices" : 11
                }
            ]
        },
        {
            "name" : "Cube.003",
            "primitives" : [
                {
                    "attributes" : {
                        "POSITION" : 12,
                        "NORMAL" : 13,
                        "TEXCOORD_0" : 14
                    },
                    "indices" : 15
                }
            ]
        },
        {
            "name" : "Cube.004",
            "primitives" : [
                {
                    "attributes" : {
                        "POSITION" : 16,
                        "NORMAL" : 17,
                        "TEXCOORD_0" : 18
                    },
                    "indices" : 19
                }
            ]
        }
    ],
    "accessors" : [
        {
            "bufferView" : 0,
            "componentType" : 5126,
            "count" : 48,
            "max" : [
                1,
                1,
                1
            ],
            "min" : [
                -1,
                -1,
                -7
            ],
            "type" : "VEC3"
        },
        {
            "bufferView" : 1,
            "componentType" : 5126,
            "count" : 48,
            "type" : "VEC3"
        },
        {
            "bufferView" : 2,
            "componentType" : 5126,
            "count" : 48,
            "type" : "VEC2"
        },
        {
            "bufferView" : 3,
            "componentType" : 5123,
            "count" : 108,
            "type" : "SCALAR"
        },
        {
            "bufferView" : 4,
            "componentType" : 5126,
            "count" : 52,
            "max" : [
                1,
                5,
                1
            ],
            "min" : [
                -1,
                -1,
                -3
            ],
            "type" : "VEC3"
        },
        {
            "bufferView" : 5,
            "componentType" : 5126,
            "count" : 52,
            "type" : "VEC3"
        },
        {
            "bufferView" : 6,
            "componentType" : 5126,
            "count" : 52,
            "type" : "VEC2"
        },
        {
            "bufferView" : 7,
            "componentType" : 5123,
            "count" : 108,
            "type" : "SCALAR"
        },
        {
            "bufferView" : 8,
            "componentType" : 5126,
            "count" : 56,
            "max" : [
                1,
                5,
                3
            ],
            "min" : [
                -1,
                -1,
                -1
            ],
            "type" : "VEC3"
        },
        {
            "bufferView" : 9,
            "componentType" : 5126,
            "count" : 56,
            "type" : "VEC3"
        },
        {
            "bufferView" : 10,
            "componentType" : 5126,
            "count" : 56,
            "type" : "VEC2"
        },
        {
            "bufferView" : 11,
            "componentType" : 5123,
            "count" : 108,
            "type" : "SCALAR"
        },
        {
            "bufferView" : 12,
            "componentType" : 5126,
            "count" : 56,
            "max" : [
                1,
                1,
                1
            ],
            "min" : [
                -1,
                -3,
                -5
            ],
            "type" : "VEC3"
        },
        {
            "bufferView" : 13,
            "componentType" : 5126,
            "count" : 56,
            "type" : "VEC3"
        },
        {
            "bufferView" : 14,
            "componentType" : 5126,
            "count" : 56,
            "type" : "VEC2"
        },
        {
            "bufferView" : 15,
            "componentType" : 5123,
            "count" : 108,
            "type" : "SCALAR"
        },
        {
            "bufferView" : 16,
            "componentType" : 5126,
            "count" : 46,
            "max" : [
                1,
                3,
                1
            ],
            "min" : [
                -1,
                -1,
                -3
            ],
            "type" : "VEC3"
        },
        {
            "bufferView" : 17,
            "componentType" : 5126,
            "count" : 46,
            "type" : "VEC3"
        },
        {
            "bufferView" : 18,
            "componentType" : 5126,
            "count" : 46,
            "type" : "VEC2"
        },
        {
            "bufferView" : 19,
            "componentType" : 5123,
            "count" : 102,
            "type" : "SCALAR"
        }
    ],
    "bufferViews" : [
        {
            "buffer" : 0,
            "byteLength" : 576,
            "byteOffset" : 0
        },
        {
            "buffer" : 0,
            "byteLength" : 576,
            "byteOffset" : 576
        },
        {
            "buffer" : 0,
            "byteLength" : 384,
            "byteOffset" : 1152
        },
        {
            "buffer" : 0,
            "byteLength" : 216,
            "byteOffset" : 1536
        },
        {
            "buffer" : 0,
            "byteLength" : 624,
            "byteOffset" : 1752
        },
        {
            "buffer" : 0,
            "byteLength" : 624,
            "byteOffset" : 2376
        },
        {
            "buffer" : 0,
            "byteLength" : 416,
            "byteOffset" : 3000
        },
        {
            "buffer" : 0,
            "byteLength" : 216,
            "byteOffset" : 3416
        },
        {
            "buffer" : 0,
            "byteLength" : 672,
            "byteOffset" : 3632
        },
        {
            "buffer" : 0,
            "byteLength" : 672,
            "byteOffset" : 4304
        },
        {
            "buffer" : 0,
            "byteLength" : 448,
            "byteOffset" : 4976
        },
        {
            "buffer" : 0,
            "byteLength" : 216,
            "byteOffset" : 5424
        },
        {
            "buffer" : 0,
            "byteLength" : 672,
            "byteOffset" : 5640
        },
        {
            "buffer" : 0,
            "byteLength" : 672,
            "byteOffset" : 6312
        },
        {
            "buffer" : 0,
            "byteLength" : 448,
            "byteOffset" : 6984
        },
        {
            "buffer" : 0,
            "byteLength" : 216,
            "byteOffset" : 7432
        },
        {
            "buffer" : 0,
            "byteLength" : 552,
            "byteOffset" : 7648
        },
        {
            "buffer" : 0,
            "byteLength" : 552,
            "byteOffset" : 8200
        },
        {
            "buffer" : 0,
            "byteLength" : 368,
            "byteOffset" : 8752
        },
        {
            "buffer" : 0,
            "byteLength" : 204,
            "byteOffset" : 9120
        }
    ],
    "buffers" : [
        {
            "byteLength" : 9324,
            "uri" : "data:application/octet-stream;base64,"
        }
    ]
}
